<svg xmlns="http://www.w3.org/2000/svg" width="1130.88" height="244.73" viewBox="0 0 1130.88 244.73"><title>logo</title><g id="Original"><text transform="translate(0 195.28)" font-size="227.87" font-family="HelveticaNeueLTCom-Bd, Helvetica Neue LT Com"><tspan font-weight="700">LINK</tspan><tspan x="535.71" y="0" font-family="HelveticaNeueLTCom-Roman, Helvetica Neue LT Com">M</tspan><tspan x="734.17" y="0" font-family="HelveticaNeueLTCom-Roman, Helvetica Neue LT Com" letter-spacing="-0.09em">A</tspan><tspan x="860.87" y="0" font-family="HelveticaNeueLTCom-Roman, Helvetica Neue LT Com" letter-spacing="0em">TE</tspan></text></g><g id="Original_copy" data-name="Original copy"><path d="M34.84,35.57H70.61V168.19h79.3v30.08H34.84Z" transform="translate(-19.12 -2.98)" fill="#fff"/><path d="M170,35.57h35.77v162.7H170Z" transform="translate(-19.12 -2.98)" fill="#fff"/><path d="M237.18,35.57h35.55l67.9,109.15h.46V35.57h33.5v162.7H338.81L271.13,89.34h-.46V198.26h-33.5Z" transform="translate(-19.12 -2.98)" fill="#fff"/><path d="M406,35.57H441.8V103l63.57-67.45H550L486.47,99.83l69.73,98.44H511.3l-49-73.14L441.8,145.85v52.41H406Z" transform="translate(-19.12 -2.98)" fill="#fff"/><path d="M573.05,35.57h29.62l51.27,136.72,51.5-136.72h29.62v162.7H714.56V62.91h-.46L663.29,198.26H644.83L594,62.91h-.46V198.26H573.05Z" transform="translate(-19.12 -2.98)" fill="#fff"/><path d="M815.27,35.57H839.2l63.57,162.7H878.84l-17.77-49H792.25l-18.23,49H751.7ZM799.09,131h55.14L827.12,55.16h-.46Z" transform="translate(-19.12 -2.98)" fill="#fff"/><path d="M934.67,53.8H880.44V35.57h130.11V53.8H956.32V198.26H934.67Z" transform="translate(-19.12 -2.98)" fill="#fff"/><path d="M1028.55,35.57h112.34V53.8H1050.2v51.73h84.54v18.23H1050.2V180h91.37v18.23h-113Z" transform="translate(-19.12 -2.98)" fill="#fff"/></g></svg>